HIERARCHY
ROOT root
{
	OFFSET 0.000000 0.000000 0.000000
	CHANNELS 6 Xposition Yposition Zposition Zrotation Yrotation Xrotation
	JOINT lhip
	{
		OFFSET 0.058581 -0.082280 -0.017664
		CHANNELS 3 Zrotation Yrotation Xrotation
		JOINT lknee
		{
			OFFSET 0.043451 -0.386469 0.008037
			CHANNELS 3 Zrotation Yrotation Xrotation
			JOINT lankle
			{
				OFFSET -0.014790 -0.426874 -0.037428
				CHANNELS 3 Zrotation Yrotation Xrotation
				JOINT ltoe
				{
					OFFSET 0.041054 -0.060286 0.122042
					CHANNELS 3 Zrotation Yrotation Xrotation
					End Site
					{
						OFFSET 0.000000 0.000000 0.000000
					}
				}
			}
		}
	}
	JOINT rhip
	{
		OFFSET -0.060310 -0.090513 -0.013543
		CHANNELS 3 Zrotation Yrotation Xrotation
		JOINT rknee
		{
			OFFSET -0.043257 -0.383688 -0.004843
			CHANNELS 3 Zrotation Yrotation Xrotation
			JOINT rankle
			{
				OFFSET 0.019056 -0.420046 -0.034562
				CHANNELS 3 Zrotation Yrotation Xrotation
				JOINT rtoe
				{
					OFFSET -0.034840 -0.062106 0.130323
					CHANNELS 3 Zrotation Yrotation Xrotation
					End Site
					{
						OFFSET 0.000000 0.000000 0.000000
					}
				}
			}
		}
	}
	JOINT lowerback
	{
		OFFSET 0.004439 0.124404 -0.038385
		CHANNELS 3 Zrotation Yrotation Xrotation
		JOINT upperback
		{
			OFFSET 0.004488 0.137956 0.026820
			CHANNELS 3 Zrotation Yrotation Xrotation
			JOINT chest
			{
				OFFSET -0.002265 0.056032 0.002855
				CHANNELS 3 Zrotation Yrotation Xrotation
				JOINT lowerneck
				{
					OFFSET -0.013390 0.211636 -0.033468
					CHANNELS 3 Zrotation Yrotation Xrotation
					JOINT upperneck
					{
						OFFSET 0.010113 0.088937 0.050410
						CHANNELS 3 Zrotation Yrotation Xrotation
						End Site
						{
							OFFSET 0.000000 0.000000 0.000000
						}
					}
				}
				JOINT lclavicle
				{
					OFFSET 0.071702 0.114000 -0.018898
					CHANNELS 3 Zrotation Yrotation Xrotation
					JOINT lshoulder
					{
						OFFSET 0.122921 0.045205 -0.019046
						CHANNELS 3 Zrotation Yrotation Xrotation
						JOINT lelbow
						{
							OFFSET 0.255332 -0.015649 -0.022946
							CHANNELS 3 Zrotation Yrotation Xrotation
							JOINT lwrist
							{
								OFFSET 0.265709 0.012698 -0.007375
								CHANNELS 3 Zrotation Yrotation Xrotation
								End Site
								{
									OFFSET 0.000000 0.000000 0.000000
								}
							}
						}
					}
				}
				JOINT rclavicle
				{
					OFFSET -0.082954 0.112472 -0.023707
					CHANNELS 3 Zrotation Yrotation Xrotation
					JOINT rshoulder
					{
						OFFSET -0.113228 0.046853 -0.008472
						CHANNELS 3 Zrotation Yrotation Xrotation
						JOINT relbow
						{
							OFFSET -0.260127 -0.014369 -0.031269
							CHANNELS 3 Zrotation Yrotation Xrotation
							JOINT rwrist
							{
								OFFSET -0.269108 0.006794 -0.006027
								CHANNELS 3 Zrotation Yrotation Xrotation
								End Site
								{
									OFFSET 0.000000 0.000000 0.000000
								}
							}
						}
					}
				}
			}
		}
	}
}
MOTION
Frames: 9
Frame Time: 0.033333
2.000491 -0.178758 0.993775 -92.970849 5.756945 85.979304 3.963174 5.862261 8.591475 -2.243348 -13.991900 1.325098 7.528527 10.782338 -19.636629 0.000000 -0.000000 0.000000 3.620041 -1.740474 2.694029 3.397175 4.238579 8.449800 1.500882 -0.465654 -13.346464 0.000000 -0.000000 0.000000 -3.007042 -1.770409 3.194909 3.238026 -4.885646 3.139110 1.797460 -2.708116 3.392466 4.866809 6.237379 21.511798 5.421739 4.563825 11.321910 -21.914778 4.533167 7.904442 -64.553761 -7.529955 7.538047 13.417707 -27.648205 5.119173 -4.145431 1.517763 -9.824402 20.669198 -4.679947 4.049817 67.404960 1.463416 8.850702 -13.718936 22.943387 -3.823976 9.909302 0.524410 -16.252008 
2.000818 -0.178462 0.993690 -93.203797 5.689522 86.141386 3.842478 5.886969 8.442342 -2.156848 -13.906915 1.216076 7.459044 10.852694 -19.605966 0.000000 -0.000000 0.000000 3.656985 -1.716768 2.414311 3.266654 4.490786 8.543770 1.617701 -0.556500 -13.482286 0.000000 -0.000000 0.000000 -2.759644 -1.784459 3.048696 3.209061 -4.731144 2.858460 1.872055 -2.648462 3.580080 4.564210 6.200356 18.336176 4.860556 4.185421 9.810977 -22.053849 4.637359 7.282119 -64.453442 -7.224388 7.603495 13.019324 -27.526369 5.717001 -4.333395 1.377640 -9.795563 20.638883 -4.844151 3.825496 67.355161 1.216060 8.830947 -13.835797 22.868918 -3.933320 9.788862 0.660145 -16.253337 
2.001390 -0.177886 0.993850 -93.365338 5.627364 86.263517 3.802050 5.900522 8.300098 -2.123158 -13.913905 1.159440 7.303907 10.801210 -19.605689 0.000000 -0.000000 0.000000 3.729206 -1.631694 2.211252 3.113401 4.767338 8.582336 1.784411 -0.776360 -13.531188 0.000000 -0.000000 0.000000 -2.559989 -1.813684 2.947305 3.164789 -4.528334 2.675540 2.022079 -2.435095 3.888719 4.655075 7.818916 14.298234 4.285366 5.214203 8.842510 -22.284106 4.835862 6.416100 -64.224014 -6.979575 7.719330 12.585274 -27.444893 6.246487 -4.001031 0.945799 -9.512928 20.873660 -5.203313 3.300153 66.966884 0.980510 9.084185 -13.883831 22.746525 -4.021511 9.462761 0.953490 -15.955689 
2.001660 -0.177170 0.993715 -93.292726 5.545195 86.432849 3.808943 6.311445 8.081990 -2.138525 -14.257449 1.204268 7.441344 10.651341 -19.669027 0.000000 -0.000000 0.000000 3.625194 -1.941773 2.026229 3.174888 4.794348 8.719476 1.761306 -0.685861 -13.506111 0.000000 -0.000000 0.000000 -2.280362 -1.688423 2.687286 3.345497 -4.299847 2.606084 2.098093 -2.246410 3.837402 4.561290 7.455437 13.970547 4.042445 4.846234 8.855395 -22.538226 4.734496 6.188116 -64.278639 -6.985427 7.751470 12.815653 -27.224696 6.196076 -4.600221 1.036237 -9.560167 20.962722 -5.167142 3.558764 66.570985 0.814900 8.890369 -14.123189 22.632722 -4.381041 9.675865 0.845736 -15.791469 
2.001820 -0.177023 0.993762 -93.093592 5.468550 86.401978 3.782668 6.674804 8.035055 -2.116339 -14.610103 1.349048 7.375786 10.455906 -19.719001 0.000000 -0.000000 0.000000 3.567846 -1.986987 2.108827 3.115906 4.590820 8.727913 1.806442 -0.600467 -13.495369 0.000000 -0.000000 0.000000 -2.055252 -1.604978 2.719243 3.390969 -4.135651 2.546558 2.075919 -2.061852 3.846834 4.527896 7.222006 14.099324 3.939444 4.617275 8.888209 -22.715292 4.706276 6.014637 -64.045615 -7.044555 7.815259 12.802514 -27.369688 6.796462 -4.957287 1.392073 -8.426685 20.872808 -5.303489 3.530454 66.538008 0.669326 8.520463 -14.219418 22.560814 -4.876346 9.807713 0.855366 -15.830057 
2.003129 -0.176744 0.994038 -92.489789 5.519778 86.509205 3.766935 7.042419 7.661775 -1.833990 -15.320962 1.525678 7.290086 10.153284 -19.671864 0.000000 -0.000000 0.000000 3.667353 -2.045022 2.028944 3.140744 4.161534 8.603894 1.720561 -0.640730 -13.403968 0.000000 -0.000000 0.000000 -1.726085 -1.598970 2.897874 3.542254 -3.919192 2.439909 2.210444 -1.751527 3.632341 4.484921 6.831485 14.291093 3.792874 4.352139 8.983045 -22.915144 4.449652 5.951627 -63.961899 -7.165052 7.881961 12.949141 -27.571755 7.028609 -5.884480 1.474237 -8.099838 20.821193 -5.307556 3.665818 66.416050 0.610513 7.964979 -14.678660 22.295378 -5.727857 10.027122 0.895689 -16.010162 
2.003142 -0.176484 0.993996 -91.799569 5.366823 86.492568 3.658625 7.776023 7.592887 -1.630642 -16.213254 1.608605 7.199065 9.739363 -19.839081 0.000000 -0.000000 0.000000 3.269886 -2.467130 2.157851 3.509772 3.710935 8.614823 1.637289 -0.536262 -13.431273 0.000000 -0.000000 0.000000 -1.404272 -1.385761 3.007303 3.510653 -3.653800 2.325604 2.205926 -1.520346 3.576086 4.376311 6.466625 14.391351 3.627485 4.004621 9.186525 -22.798518 4.273826 5.768860 -63.963666 -7.142935 7.966929 12.670714 -27.929190 7.556440 -6.009389 1.379706 -7.933318 20.684774 -5.278777 4.013759 66.397635 0.312137 7.627899 -14.769511 22.502700 -5.820820 10.027131 0.968889 -15.929214 
2.004069 -0.175915 0.994026 -90.834231 5.339903 86.756484 3.631102 8.131617 7.107606 -1.453213 -17.060766 1.718797 7.092947 9.345198 -19.876511 0.000000 -0.000000 0.000000 3.460520 -2.438292 1.855011 3.316755 3.297452 8.681430 1.660283 -0.945652 -13.554322 0.000000 -0.000000 0.000000 -1.196238 -1.180358 3.040217 3.559278 -3.219299 2.072420 2.421221 -1.310644 3.729346 4.150158 6.168913 14.133920 3.653717 3.828015 9.663381 -22.889600 4.030000 5.544436 -64.341360 -7.511270 7.928791 12.441852 -27.338774 6.380550 -4.241671 1.120610 -8.355453 20.553883 -5.460693 4.033318 66.278055 -0.022410 7.780269 -14.588977 22.936089 -5.499856 9.537617 0.989646 -15.880468 
2.004193 -0.175257 0.993848 -89.894594 5.184173 86.955612 3.636692 8.083919 6.915121 -1.553115 -17.423051 1.453878 6.783641 8.973715 -19.653697 0.000000 -0.000000 0.000000 3.366417 -2.729761 1.717552 3.323191 2.966856 8.686536 1.739581 -1.088401 -13.599846 0.000000 -0.000000 0.000000 -1.053029 -0.762038 3.052686 3.452181 -2.817217 1.795393 2.502469 -1.075107 3.912111 4.131158 6.007191 13.646940 3.741111 3.714573 10.229824 -22.813261 3.893662 5.180415 -64.867024 -7.841097 7.784405 12.079146 -26.235349 4.311205 -2.528547 -0.241935 -9.593619 20.406199 -5.602327 4.261876 66.426692 -0.302408 7.943058 -14.615787 23.017023 -5.576907 8.941172 1.126319 -16.157698 
